<svg width="98" height="41" fill="none" xmlns="http://www.w3.org/2000/svg"><path d="M21.59 20.69a3.58 3.58 0 10-7.16 0 3.58 3.58 0 007.16 0zm3 0a6.58 6.58 0 11-13.16 0 6.58 6.58 0 0113.16 0zm17.53 0a3.58 3.58 0 10-7.16 0 3.58 3.58 0 007.16 0zm3 0a6.58 6.58 0 11-13.16 0 6.58 6.58 0 0113.16 0zm17.53 0a3.58 3.58 0 10-7.16 0 3.58 3.58 0 007.16 0zm3 0a6.58 6.58 0 11-13.16 0 6.58 6.58 0 0113.16 0zm17.53 0a3.58 3.58 0 10-7.16 0 3.58 3.58 0 007.16 0zm3 0a6.58 6.58 0 11-13.16 0 6.58 6.58 0 0113.16 0zM10.66 34.3a3.58 3.58 0 10-7.16 0 3.58 3.58 0 007.16 0zm3 0a6.58 6.58 0 11-13.16 0 6.58 6.58 0 0113.16 0zm17.86 0a3.58 3.58 0 10-7.16 0 3.58 3.58 0 007.16 0zm3 0a6.58 6.58 0 11-13.16 0 6.58 6.58 0 0113.16 0zm17.86 0a3.58 3.58 0 10-7.16 0 3.58 3.58 0 007.16 0zm3 0a6.58 6.58 0 11-13.16 0 6.58 6.58 0 0113.16 0zm17.86 0a3.58 3.58 0 10-7.16 0 3.58 3.58 0 007.16 0zm3 0a6.58 6.58 0 11-13.16 0 6.58 6.58 0 0113.16 0zm17.86 0a3.58 3.58 0 10-7.16 0 3.58 3.58 0 007.16 0zm3 0a6.58 6.58 0 11-13.16 0 6.58 6.58 0 0113.16 0zM31.85 7.08a3.58 3.58 0 10-7.16 0 3.58 3.58 0 007.16 0zm3 0a6.58 6.58 0 11-13.16 0 6.58 6.58 0 0113.16 0zm17.53 0a3.58 3.58 0 10-7.16 0 3.58 3.58 0 007.16 0zm3 0a6.58 6.58 0 11-13.16 0 6.58 6.58 0 0113.16 0zm17.53 0a3.58 3.58 0 10-7.16 0 3.58 3.58 0 007.16 0zm3 0a6.58 6.58 0 11-13.16 0 6.58 6.58 0 0113.16 0z" fill="#fff"/></svg>