<svg width="79" height="79" fill="none" xmlns="http://www.w3.org/2000/svg"><path d="M75.5 39.75c0-19.882-16.118-36-36-36s-36 16.118-36 36 16.118 36 36 36 36-16.118 36-36zm3 0c0 21.54-17.46 39-39 39s-39-17.46-39-39 17.46-39 39-39 39 17.46 39 39z" fill="#fff"/><path d="M55.342 21.787a1.5 1.5 0 012.122 2.121L23.658 57.714l-.114.102a1.5 1.5 0 01-2.007-2.224l33.805-33.805z" fill="#fff"/><path d="M21.537 21.787a1.5 1.5 0 012.121 0l33.806 33.805.102.114a1.5 1.5 0 01-2.11 2.11l-.114-.102-33.805-33.806a1.5 1.5 0 010-2.121z" fill="#fff"/></svg>