<svg width="113" height="44" fill="none" xmlns="http://www.w3.org/2000/svg"><path d="M29.2 6.83a3.58 3.58 0 10-7.16 0 3.58 3.58 0 007.16 0zm3 0a6.58 6.58 0 11-13.16 0 6.58 6.58 0 0113.16 0zm17.53 0a3.58 3.58 0 10-7.16 0 3.58 3.58 0 007.16 0zm3 0a6.58 6.58 0 11-13.16 0 6.58 6.58 0 0113.16 0zm17.53 0a3.58 3.58 0 10-7.16 0 3.58 3.58 0 007.16 0zm3 0a6.58 6.58 0 11-13.16 0 6.58 6.58 0 0113.16 0zm17.53 0a3.58 3.58 0 10-7.16 0 3.58 3.58 0 007.16 0zm3 0a6.58 6.58 0 11-13.16 0 6.58 6.58 0 0113.16 0zM18.28 19.61a3.58 3.58 0 10-7.16 0 3.58 3.58 0 007.16 0zm3 0a6.58 6.58 0 11-13.16 0 6.58 6.58 0 0113.16 0zm17.85 0a3.58 3.58 0 10-7.16 0 3.58 3.58 0 007.16 0zm3 0a6.58 6.58 0 11-13.16 0 6.58 6.58 0 0113.16 0zm17.86 0a3.58 3.58 0 10-7.16 0 3.58 3.58 0 007.16 0zm3 0a6.58 6.58 0 11-13.16 0 6.58 6.58 0 0113.16 0zm17.86 0a3.58 3.58 0 10-7.16 0 3.58 3.58 0 007.16 0zm3 0a6.58 6.58 0 11-13.16 0 6.58 6.58 0 0113.16 0zm17.86 0a3.58 3.58 0 10-7.16 0 3.58 3.58 0 007.16 0zm3 0a6.58 6.58 0 11-13.16 0 6.58 6.58 0 0113.16 0zm4.62 17.594a3.397 3.397 0 00-3.4-3.394H6.9c-1.879 0-3.4 1.52-3.4 3.394A3.398 3.398 0 006.9 40.6h99.03c1.879 0 3.4-1.522 3.4-3.396zm3 0a6.398 6.398 0 01-6.4 6.396H6.9a6.398 6.398 0 01-6.4-6.396 6.398 6.398 0 016.4-6.394h99.03c3.533 0 6.4 2.861 6.4 6.394z" fill="#fff"/></svg>