<svg width="60" height="64" fill="none" xmlns="http://www.w3.org/2000/svg"><path d="M56.403 11.793c0-.727-.417-1.633-1.653-2.657-1.227-1.016-3.092-1.998-5.53-2.852C44.36 4.581 37.549 3.5 29.953 3.5s-14.409 1.081-19.27 2.784C8.247 7.138 6.38 8.12 5.154 9.136 3.917 10.16 3.5 11.066 3.5 11.793c0 .727.417 1.633 1.653 2.656 1.227 1.016 3.093 1.998 5.53 2.852 4.86 1.703 11.673 2.784 19.27 2.784 7.595 0 14.407-1.081 19.268-2.784 2.437-.854 4.302-1.836 5.529-2.852 1.236-1.024 1.653-1.929 1.653-2.656zm3 0c0 1.977-1.146 3.648-2.739 4.967-1.602 1.327-3.83 2.455-6.451 3.373-5.256 1.841-12.42 2.952-20.26 2.952-7.842 0-15.006-1.11-20.262-2.952-2.62-.918-4.849-2.046-6.45-3.373C1.647 15.44.5 13.77.5 11.793c0-1.977 1.148-3.649 2.74-4.968C4.842 5.498 7.07 4.37 9.691 3.452 14.947 1.611 22.111.5 29.952.5c7.841 0 15.005 1.11 20.26 2.952 2.622.918 4.85 2.046 6.452 3.373 1.593 1.32 2.74 2.991 2.74 4.968z" fill="#fff"/><path d="M.5 31.907V11.793a1.5 1.5 0 113 0v20.114c0 .728.417 1.634 1.653 2.658 1.227 1.017 3.093 2 5.53 2.855 4.86 1.704 11.673 2.786 19.27 2.786 7.595 0 14.406-1.082 19.265-2.786 2.436-.855 4.301-1.838 5.527-2.855 1.235-1.024 1.652-1.93 1.653-2.658V11.793a1.5 1.5 0 113 0v20.114c0 1.977-1.147 3.648-2.739 4.968-1.601 1.328-3.828 2.457-6.448 3.376-5.255 1.843-12.417 2.955-20.259 2.955-7.842 0-15.006-1.112-20.262-2.955-2.62-.919-4.849-2.048-6.45-3.376C1.646 35.555.5 33.884.5 31.907z" fill="#fff"/><path d="M.5 52.201V32.094a1.5 1.5 0 113 0V52.2c0 .728.417 1.635 1.653 2.66 1.227 1.016 3.093 1.998 5.53 2.853 4.86 1.704 11.673 2.786 19.27 2.786 7.597 0 14.408-1.074 19.266-2.774 2.436-.853 4.3-1.835 5.525-2.852 1.234-1.024 1.654-1.934 1.654-2.673V32.094a1.5 1.5 0 113 0V52.2c0 1.982-1.144 3.658-2.738 4.982-1.602 1.33-3.83 2.458-6.45 3.375-5.255 1.839-12.417 2.942-20.258 2.942-7.842 0-15.006-1.112-20.262-2.955-2.62-.92-4.849-2.047-6.45-3.375C1.646 55.85.5 54.178.5 52.2z" fill="#fff"/><path d="M28.452 53.509V28.645a1.5 1.5 0 113 0v24.864a1.5 1.5 0 01-3 0z" fill="#fff"/><path d="M35.173 48.453a1.5 1.5 0 011.921 2.305l-6.181 5.154a1.5 1.5 0 01-1.922 0l-6.182-5.154-.112-.105a1.5 1.5 0 011.911-2.292l.123.092 5.22 4.354 5.222-4.354z" fill="#fff"/></svg>