<svg width="57" height="84" fill="none" xmlns="http://www.w3.org/2000/svg"><path d="M54.56 67.244l.152.008a1.5 1.5 0 010 2.984l-.153.008H46.96a1.5 1.5 0 110-3h7.6zM.5 62V22a8.244 8.244 0 018.244-8.244H40.45l.154.008a1.5 1.5 0 010 2.984l-.154.008H8.744A5.244 5.244 0 003.5 22v40a5.244 5.244 0 005.244 5.244H40.37l.153.008a1.5 1.5 0 010 2.984l-.153.008H8.744A8.244 8.244 0 01.5 62zm54.06-48.244l.152.008a1.5 1.5 0 010 2.984l-.153.008H46.96a1.5 1.5 0 010-3h7.6z" fill="#fff"/><path d="M11.662 74.322V9.672a1.5 1.5 0 013 0v64.65a1.5 1.5 0 01-3 0zM39.35 82V2a1.5 1.5 0 013 0v80a1.5 1.5 0 01-3 0z" fill="#fff"/><path d="M46.96 8.754a1.5 1.5 0 011.5 1.5v10a1.5 1.5 0 01-1.5 1.5h-6.11a1.5 1.5 0 01-1.5-1.5v-10a1.5 1.5 0 011.5-1.5h6.11zm-4.61 10h3.11v-7h-3.11v7zm4.61 43.488a1.5 1.5 0 011.5 1.5v10a1.5 1.5 0 01-1.5 1.5h-6.11a1.5 1.5 0 01-1.5-1.5v-10a1.5 1.5 0 011.5-1.5h6.11zm-4.61 10h3.11v-7h-3.11v7z" fill="#fff"/></svg>