<svg width="98" height="64" fill="none" xmlns="http://www.w3.org/2000/svg"><path d="M76.65 54.867h9.432a10.321 10.321 0 009.434-6.14c.578-1.31.877-2.725.876-4.156V24.08a10.273 10.273 0 00-3.341-7.616 10.304 10.304 0 00-6.969-2.675H76.65v41.079zm0-41.078V5.02c0-.802-.32-1.57-.887-2.136A3.03 3.03 0 0073.623 2H39.36a9.56 9.56 0 00-6.303 2.382l-5.745 5.053a9.063 9.063 0 00-3.082 6.809v10.144h52.42M50.44 62h15.018a1.463 1.463 0 001.446-1.291 1.457 1.457 0 00-.089-.694l-3.834-9.752a3.514 3.514 0 00-3.282-2.23H41.18a3.532 3.532 0 00-3.28 2.23l-3.83 9.752a1.451 1.451 0 00.676 1.817c.21.11.443.168.68.168H50.44zm-14.682-7.132H25.465a1.238 1.238 0 01-1.236-1.234V26.389M76.65 54.88H64.796m-40.567-6.848H12.91S2 41.456 2 22.142l4.837-4.816V6.107h10.146V17.21h7.246" stroke="#fff" stroke-width="3" stroke-miterlimit="10"/></svg>