<svg width="75" height="73" fill="none" xmlns="http://www.w3.org/2000/svg"><path d="M3.114 49.91a1.5 1.5 0 01-2.228-2.008l2.228 2.009zM43.144.997a1.5 1.5 0 012.23 2.008L3.114 49.91.886 47.902 43.144.996z" fill="#fff"/><path d="M74.552 47.902a1.501 1.501 0 01-2.23 2.009l2.23-2.009zM30.174.886a1.5 1.5 0 012.118.11l42.26 46.906-2.23 2.009L30.065 3.004a1.5 1.5 0 01.11-2.118z" fill="#fff"/><path d="M69.647 43.201a1.5 1.5 0 110 3H5.79a1.5 1.5 0 010-3h63.857zM36.218 30.469v-8.336a1.5 1.5 0 113 0v8.336a1.5 1.5 0 01-3 0z" fill="#fff"/><path d="M39.109 33.465c0-.763-.62-1.385-1.39-1.385-.77 0-1.39.623-1.39 1.385a1.39 1.39 0 002.78 0zm3 0a4.389 4.389 0 01-4.39 4.386 4.388 4.388 0 01-4.39-4.386 4.388 4.388 0 014.39-4.385c2.421 0 4.39 1.96 4.39 4.385zM12.5 46.5a1.5 1.5 0 013 0V70h45V46.5a1.5 1.5 0 013 0v25A1.5 1.5 0 0162 73H14a1.5 1.5 0 01-1.5-1.5v-25z" fill="#fff"/></svg>