<svg width="45" height="83" fill="none" xmlns="http://www.w3.org/2000/svg"><path d="M16.682 81.197H27.31a4.555 4.555 0 004.555-4.55v-45.4a9.172 9.172 0 00-3.155-6.927l-5.931-5.106v-3.418a2.158 2.158 0 00-2.153-2.152h-7.87a2.152 2.152 0 00-2.145 2.152v3.418L4.673 24.32A9.173 9.173 0 001.5 31.247v45.4a4.55 4.55 0 004.586 4.55h10.596z" stroke="#fff" stroke-width="3" stroke-linecap="round" stroke-linejoin="round"/><path d="M16.682 12.127A10.627 10.627 0 0127.309 1.5h5.564A10.628 10.628 0 0143.5 12.127v33.398a10.394 10.394 0 01-10.395 10.394" stroke="#fff" stroke-width="3" stroke-linecap="round" stroke-linejoin="round"/></svg>