<svg width="18" height="19" fill="none" xmlns="http://www.w3.org/2000/svg"><path opacity=".3" d="M18 10.928V9.132c0-.754 0-1.423-.012-2.02H.012C0 7.71 0 8.378 0 9.132v1.796c0 3.386 0 5.08 1.054 6.133 1.055 1.054 2.753 1.051 6.146 1.051h3.6c3.394 0 5.091 0 6.145-1.05C18 16.01 18 14.313 18 10.927zM5.145.804a.698.698 0 00-.2-.49.675.675 0 00-.962 0 .698.698 0 00-.2.49v1.458C2.479 2.368 1.622 2.63.992 3.27.361 3.911.105 4.783 0 6.112h18c-.105-1.33-.361-2.2-.991-2.842-.63-.64-1.486-.902-2.792-1.008V.804a.698.698 0 00-.2-.49.675.675 0 00-.962 0 .698.698 0 00-.199.49v1.397c-.604-.012-1.28-.012-2.041-.012H7.186c-.762 0-1.438 0-2.041.012V.804z" fill="#47535B"/></svg>