<svg width="23" height="16" fill="none" xmlns="http://www.w3.org/2000/svg"><path d="M23 1.136C23 .507 22.476 0 21.826 0H1.174C.524 0 0 .507 0 1.136v13.728C0 15.493.524 16 1.173 16h20.654c.649 0 1.173-.507 1.173-1.136V1.136zm-2.347 2.31c0 .333-.149.65-.415.87l-4.498 3.71 4.506 3.71c.258.213.407.53.407.864 0 .621-.524 1.128-1.166 1.128h-.007c-.282 0-.564-.098-.775-.28l-4.772-3.93-1.666 1.378a1.195 1.195 0 01-1.518 0L9.075 9.518 4.31 13.441c-.22.181-.501.28-.798.28-.642 0-1.166-.508-1.166-1.129 0-.333.149-.643.407-.863L7.26 8.02 2.824 4.37a1.287 1.287 0 01-.477-1c0-.605.508-1.097 1.134-1.097.266 0 .532.09.736.265l6.915 5.694a.594.594 0 00.744 0l6.915-5.694c.204-.167.47-.265.735-.265.626 0 1.135.492 1.135 1.098l-.008.075z" fill="#6BC6FF"/></svg>