<svg width="1920" height="418" fill="none" xmlns="http://www.w3.org/2000/svg"><mask id="a" style="mask-type:alpha" maskUnits="userSpaceOnUse" x="0" y="0" width="1920" height="418"><path fill="#214CD7" d="M0 0h1920v418H0z"/></mask><g mask="url(#a)" fill="#6BC6FF"><path opacity=".1" d="M952.611 29.207c-486.681 156.758-848.35 13.67-968.35-77.468l-88.86 1054.931 2257.959-38.734c41.02-273.416 92.51-841.211-29.62-925.059-152.65-104.81-562.78-209.619-1171.129-13.67z"/><path opacity=".1" d="M961.725 268.446C330.589 122.624 132.362 195.535-93.206 325.408l47.848 514.934 1866.068-18.228 214.17-97.974c30.38-240.758 70.18-699.034-13.67-606.073-104.81 116.202-428.35 296.201-1059.485 150.379z"/></g></svg>