<svg width="55" height="75" fill="none" xmlns="http://www.w3.org/2000/svg"><path d="M27.273 0C12.233 0 0 12.236 0 27.273c.005 1.12.08 2.24.227 3.352C2.417 51.296 23.944 73.084 24.859 74a3.41 3.41 0 004.827 0c.916-.915 22.442-22.696 24.627-43.31a27.49 27.49 0 00.232-3.416C54.545 12.236 42.313 0 27.273 0z" fill="#214CD7"/><path d="M26.971 15.65c6.576 0 11.925 5.349 11.925 11.925 0 6.575-5.35 11.924-11.925 11.924-6.576 0-11.926-5.351-11.926-11.925 0-6.573 5.35-11.924 11.926-11.924zm0-5.501c-9.621 0-17.426 7.801-17.426 17.426C9.545 37.199 17.35 45 26.971 45c9.621 0 17.426-7.804 17.426-17.425 0-9.622-7.802-17.426-17.426-17.426z" fill="#fff"/><path d="M34.949 23.655l-7.978-18.2-7.981 18.2a8.89 8.89 0 1015.96 0h-.002z" fill="#3AAEF7"/></svg>