<svg width="389" height="58" fill="none" xmlns="http://www.w3.org/2000/svg"><path d="M25.558 14.953c9.644 0 17.49 7.845 17.49 17.49 0 9.644-7.846 17.49-17.49 17.49-9.645 0-17.491-7.85-17.491-17.49 0-9.642 7.846-17.49 17.49-17.49zm0-8.068C11.447 6.885 0 18.327 0 32.442 0 46.558 11.447 58 25.558 58c14.11 0 25.557-11.447 25.557-25.558 0-14.11-11.442-25.557-25.557-25.557z" fill="#214CD7"/><path d="M37.258 26.694L25.558 0 13.852 26.693a13.038 13.038 0 1023.41 0l-.004.001z" fill="#3AAEF7"/><path d="M71.425 27.27c-.966 0-1.86-.165-2.682-.495a6.606 6.606 0 01-2.133-1.395 6.333 6.333 0 01-1.413-2.088 6.716 6.716 0 01-.495-2.592c0-.936.165-1.803.495-2.601a6.333 6.333 0 011.413-2.088 6.486 6.486 0 012.133-1.386 7.133 7.133 0 012.682-.495c.972 0 1.866.168 2.682.504a6.532 6.532 0 012.133 1.404 6.317 6.317 0 011.404 2.097 6.5 6.5 0 01.504 2.565c0 .93-.168 1.794-.504 2.592a6.22 6.22 0 01-1.404 2.088 6.606 6.606 0 01-2.133 1.395c-.816.33-1.71.495-2.682.495zm0-2.808c.522 0 .999-.087 1.431-.261a3.28 3.28 0 001.89-1.944c.18-.468.27-.987.27-1.557 0-.768-.156-1.434-.468-1.998a3.225 3.225 0 00-1.278-1.305c-.54-.312-1.155-.468-1.845-.468-.516 0-.993.09-1.431.27a3.28 3.28 0 00-1.143.756c-.318.33-.567.726-.747 1.188a4.26 4.26 0 00-.27 1.557c0 .762.156 1.425.468 1.989a3.366 3.366 0 001.278 1.314c.546.306 1.161.459 1.845.459zm8.653 6.318V17.82h2.546v1.053a3.684 3.684 0 011.306-.963c.533-.24 1.151-.36 1.853-.36.876 0 1.656.201 2.34.603.69.402 1.233.969 1.63 1.701.395.732.594 1.584.594 2.556 0 .684-.114 1.323-.343 1.917a4.656 4.656 0 01-.954 1.548c-.413.438-.903.78-1.466 1.026a4.546 4.546 0 01-1.855.369c-.54 0-1.037-.087-1.493-.261a3.999 3.999 0 01-1.216-.738v4.509h-2.942zm5.156-6.048a2.32 2.32 0 001.144-.279c.335-.192.6-.462.791-.81.193-.348.288-.759.288-1.233 0-.48-.098-.891-.296-1.233a1.996 1.996 0 00-.793-.801 2.213 2.213 0 00-1.133-.288c-.42 0-.799.096-1.135.288-.335.186-.6.453-.791.801-.192.342-.288.753-.288 1.233 0 .474.096.885.287 1.233.192.348.453.618.783.81a2.32 2.32 0 001.144.279zM92.066 27v-9.18h6.309v2.34h-3.357V27h-2.952zm11.735.27c-.864 0-1.638-.201-2.322-.603a4.383 4.383 0 01-1.62-1.701c-.396-.732-.594-1.584-.594-2.556 0-.732.114-1.395.341-1.989.229-.6.547-1.113.955-1.539a4.181 4.181 0 011.44-.981 4.564 4.564 0 011.8-.351c.852 0 1.578.186 2.178.558.6.366 1.029.855 1.287 1.467l-.405.639V17.82h2.538V27h-2.538v-2.394l.405.63c-.258.612-.687 1.104-1.287 1.476-.6.372-1.326.558-2.178.558zm.504-2.538c.408 0 .774-.093 1.098-.279.33-.192.591-.462.783-.81.192-.348.288-.759.288-1.233 0-.48-.096-.891-.288-1.233a2.013 2.013 0 00-.783-.801 2.113 2.113 0 00-1.098-.288c-.408 0-.774.096-1.098.288a2.031 2.031 0 00-.774.801c-.192.342-.288.753-.288 1.233 0 .474.096.885.288 1.233.192.348.45.618.774.81.324.186.69.279 1.098.279zM111.841 27v-9.18h2.952v3.303h3.519V17.82h2.952V27h-2.952v-3.537h-3.519V27h-2.952zm11.865 0v-9.18h2.817v5.04l3.96-5.04h2.646V27h-2.817v-5.112L126.343 27h-2.637zm15.142.243a9.874 9.874 0 01-1.53-.117 6.719 6.719 0 01-1.404-.378 4.534 4.534 0 01-1.17-.693l1.134-1.854c.348.312.771.543 1.269.693a5.705 5.705 0 001.575.216c.588 0 1.044-.078 1.368-.234.324-.156.486-.411.486-.765 0-.306-.159-.516-.477-.63-.312-.114-.789-.171-1.431-.171h-1.683v-2.043h1.602c.582 0 1.008-.06 1.278-.18.27-.126.405-.327.405-.603a.537.537 0 00-.207-.432c-.132-.114-.324-.198-.576-.252-.246-.06-.54-.09-.882-.09-.504 0-.987.075-1.449.225a3.001 3.001 0 00-1.188.684l-.999-1.908a5.258 5.258 0 011.845-.909 7.507 7.507 0 012.061-.297c.846 0 1.566.102 2.16.306.6.198 1.056.486 1.368.864.318.378.477.834.477 1.368a1.9 1.9 0 01-.396 1.161c-.258.348-.636.591-1.134.729.63.174 1.107.447 1.431.819.33.366.495.84.495 1.422 0 .612-.18 1.149-.54 1.611-.354.462-.861.822-1.521 1.08-.66.252-1.449.378-2.367.378zm10.128.027c-.864 0-1.638-.201-2.322-.603a4.379 4.379 0 01-1.62-1.701c-.396-.732-.594-1.584-.594-2.556 0-.732.114-1.395.342-1.989a4.51 4.51 0 01.954-1.539 4.181 4.181 0 011.44-.981 4.564 4.564 0 011.8-.351c.852 0 1.578.186 2.178.558.6.366 1.029.855 1.287 1.467l-.405.639V17.82h2.538V27h-2.538v-2.394l.405.63c-.258.612-.687 1.104-1.287 1.476-.6.372-1.326.558-2.178.558zm.504-2.538c.408 0 .774-.093 1.098-.279.33-.192.591-.462.783-.81.192-.348.288-.759.288-1.233 0-.48-.096-.891-.288-1.233a2.013 2.013 0 00-.783-.801 2.113 2.113 0 00-1.098-.288c-.408 0-.774.096-1.098.288a2.031 2.031 0 00-.774.801c-.192.342-.288.753-.288 1.233 0 .474.096.885.288 1.233.192.348.45.618.774.81.324.186.69.279 1.098.279zM157.017 27v-9.18h2.952v6.84h3.213v-6.84h2.952V27h-9.117zm8.874 2.7V27h-1.017v-2.34h3.708v5.04h-2.691zm4.187-2.7v-9.18h2.817v5.04l3.96-5.04h2.646V27h-2.817v-5.112L172.715 27h-2.637zm11.163 0l3.177-4.869.783 1.791c-.702.006-1.329-.105-1.881-.333-.546-.234-.978-.567-1.296-.999-.312-.432-.468-.954-.468-1.566 0-.666.159-1.236.477-1.71.318-.48.771-.849 1.359-1.107s1.284-.387 2.088-.387h4.446V27h-2.799v-7.11h-1.305c-.438 0-.777.09-1.017.27-.24.174-.36.429-.36.765 0 .33.108.591.324.783.216.186.519.279.909.279h1.719v1.971h-1.044L184.454 27h-3.213zm15.292 0v-9.18h4.824c1.092 0 1.944.195 2.556.585.618.39.927.981.927 1.773 0 .432-.111.798-.333 1.098a2.388 2.388 0 01-.9.711 4.405 4.405 0 01-1.242.36l-.045-.657c.894.078 1.602.336 2.124.774.528.432.792 1.005.792 1.719 0 .588-.147 1.092-.441 1.512-.288.42-.714.744-1.278.972-.564.222-1.251.333-2.061.333h-4.923zm2.817-1.989h1.719c.42 0 .738-.075.954-.225a.726.726 0 00.333-.639.693.693 0 00-.324-.612c-.21-.15-.531-.225-.963-.225h-1.989v-1.881h1.764c.396 0 .702-.063.918-.189.216-.132.324-.336.324-.612a.675.675 0 00-.333-.612c-.216-.138-.519-.207-.909-.207h-1.494v5.202zm12.165 2.259c-1.002 0-1.887-.219-2.655-.657a4.932 4.932 0 01-1.809-1.773 4.723 4.723 0 01-.648-2.43c0-.642.123-1.254.369-1.836a4.854 4.854 0 011.062-1.557 4.924 4.924 0 011.62-1.071 5.237 5.237 0 012.061-.396c1.002 0 1.887.222 2.655.666a4.795 4.795 0 011.8 1.764c.432.738.648 1.548.648 2.43a4.733 4.733 0 01-1.422 3.393c-.456.45-.996.807-1.62 1.071a5.237 5.237 0 01-2.061.396zm0-2.538c.42 0 .798-.093 1.134-.279.336-.192.6-.462.792-.81.192-.348.288-.759.288-1.233 0-.48-.096-.891-.288-1.233a1.938 1.938 0 00-.783-.801 2.262 2.262 0 00-1.143-.288c-.426 0-.807.096-1.143.288-.336.186-.6.453-.792.801-.192.342-.288.753-.288 1.233 0 .474.096.885.288 1.233.198.348.465.618.801.81.336.186.714.279 1.134.279zM224.773 27v-6.84h-2.637v.63c0 .702-.06 1.38-.18 2.034a5.937 5.937 0 01-.63 1.791c-.3.54-.714.999-1.242 1.377-.522.378-1.188.645-1.998.801l-.558-2.052c.534-.12.939-.372 1.215-.756.282-.384.471-.855.567-1.413a10.51 10.51 0 00.144-1.782v-2.97h8.271V27h-2.952zm-7.245 2.7v-4.959l1.539.108.468-.189h10.026v5.04h-2.691V27h-6.651v2.7h-2.691zm17.788-2.43c-1.002 0-1.887-.219-2.655-.657a4.932 4.932 0 01-1.809-1.773 4.723 4.723 0 01-.648-2.43c0-.642.123-1.254.369-1.836a4.854 4.854 0 011.062-1.557 4.924 4.924 0 011.62-1.071 5.237 5.237 0 012.061-.396c1.002 0 1.887.222 2.655.666a4.795 4.795 0 011.8 1.764c.432.738.648 1.548.648 2.43a4.733 4.733 0 01-1.422 3.393c-.456.45-.996.807-1.62 1.071a5.237 5.237 0 01-2.061.396zm0-2.538c.42 0 .798-.093 1.134-.279.336-.192.6-.462.792-.81.192-.348.288-.759.288-1.233 0-.48-.096-.891-.288-1.233a1.938 1.938 0 00-.783-.801 2.262 2.262 0 00-1.143-.288c-.426 0-.807.096-1.143.288-.336.186-.6.453-.792.801-.192.342-.288.753-.288 1.233 0 .474.096.885.288 1.233.198.348.465.618.801.81.336.186.714.279 1.134.279zm11.276 2.538c-.972 0-1.842-.21-2.61-.63a4.837 4.837 0 01-1.809-1.737c-.444-.738-.666-1.569-.666-2.493 0-.696.129-1.338.387-1.926a4.69 4.69 0 011.107-1.539 4.997 4.997 0 011.656-1.026 5.593 5.593 0 012.052-.369c.696 0 1.341.096 1.935.288a4.887 4.887 0 011.602.846l-1.296 2.187a2.834 2.834 0 00-.972-.594 3.2 3.2 0 00-1.098-.189c-.504 0-.939.09-1.305.27a1.93 1.93 0 00-.846.792c-.192.348-.288.765-.288 1.251 0 .732.216 1.305.648 1.719.438.408 1.038.612 1.8.612.432 0 .837-.078 1.215-.234a3.442 3.442 0 001.053-.702l1.197 2.232a6.261 6.261 0 01-1.773.909 6.204 6.204 0 01-1.989.333zm5.294-.27v-9.18h2.952v3.303h3.519V17.82h2.952V27h-2.952v-3.537h-3.519V27h-2.952zm15.672.27c-.864 0-1.638-.201-2.322-.603a4.379 4.379 0 01-1.62-1.701c-.396-.732-.594-1.584-.594-2.556 0-.732.114-1.395.342-1.989a4.51 4.51 0 01.954-1.539 4.181 4.181 0 011.44-.981 4.564 4.564 0 011.8-.351c.852 0 1.578.186 2.178.558.6.366 1.029.855 1.287 1.467l-.405.639V17.82h2.538V27h-2.538v-2.394l.405.63c-.258.612-.687 1.104-1.287 1.476-.6.372-1.326.558-2.178.558zm.504-2.538c.408 0 .774-.093 1.098-.279.33-.192.591-.462.783-.81.192-.348.288-.759.288-1.233 0-.48-.096-.891-.288-1.233a2.013 2.013 0 00-.783-.801 2.113 2.113 0 00-1.098-.288c-.408 0-.774.096-1.098.288a2.031 2.031 0 00-.774.801c-.192.342-.288.753-.288 1.233 0 .474.096.885.288 1.233.192.348.45.618.774.81.324.186.69.279 1.098.279zm12.199 2.538c-.774 0-1.479-.135-2.115-.405a4.63 4.63 0 01-1.629-1.161 5.3 5.3 0 01-1.053-1.845c-.246-.72-.369-1.53-.369-2.43 0-.996.087-1.884.261-2.664.18-.78.456-1.455.828-2.025a4.56 4.56 0 011.449-1.404c.594-.36 1.302-.615 2.124-.765l4.401-.801.432 2.421-4.284.711c-.576.108-1.035.27-1.377.486-.342.216-.6.501-.774.855-.168.354-.279.792-.333 1.314a4.272 4.272 0 011.314-.837 4.423 4.423 0 011.674-.306c.852 0 1.605.189 2.259.567a4.139 4.139 0 011.539 1.53c.378.636.567 1.344.567 2.124 0 .642-.117 1.245-.351 1.809a4.494 4.494 0 01-.999 1.476 4.619 4.619 0 01-1.548.999c-.6.234-1.272.351-2.016.351zm-.027-2.538c.384 0 .729-.084 1.035-.252.312-.168.558-.405.738-.711.186-.306.279-.669.279-1.089 0-.426-.09-.792-.27-1.098a1.807 1.807 0 00-.738-.702 2.133 2.133 0 00-1.044-.252c-.39 0-.741.084-1.053.252a1.807 1.807 0 00-.738.702c-.18.306-.27.672-.27 1.098 0 .42.09.783.27 1.089.186.306.435.543.747.711.312.168.66.252 1.044.252zM291.642 27v-3.537h-2.565v-2.34h2.565V17.82h2.952v3.303h2.547v2.34h-2.547V27h-2.952zm-5.976 0l2.763-4.815-2.664-4.365h3.204l2.619 4.383-2.61 4.797h-3.312zm11.529 0l-2.547-4.797 2.718-4.383h3.105l-2.664 4.221L300.669 27h-3.474zm9.083.27c-1.008 0-1.893-.201-2.655-.603a4.465 4.465 0 01-1.782-1.701c-.426-.732-.639-1.587-.639-2.565 0-.708.123-1.359.369-1.953a4.66 4.66 0 011.044-1.539 4.71 4.71 0 011.584-.999 5.476 5.476 0 012.016-.36c.804 0 1.521.144 2.151.432.63.282 1.149.678 1.557 1.188.414.504.699 1.101.855 1.791.156.684.162 1.428.018 2.232h-6.894c.006.36.114.675.324.945.21.27.498.483.864.639.366.15.792.225 1.278.225.54 0 1.053-.069 1.539-.207a5.188 5.188 0 001.395-.657l.927 1.998c-.282.216-.648.411-1.098.585-.444.168-.918.3-1.422.396a7.133 7.133 0 01-1.431.153zm-2.196-6.066h3.906c-.012-.462-.183-.831-.513-1.107s-.777-.414-1.341-.414c-.57 0-1.044.138-1.422.414a1.518 1.518 0 00-.63 1.107zM312.619 27v-9.18h2.952v3.303h3.519V17.82h2.952V27h-2.952v-3.537h-3.519V27h-2.952zm11.865 0v-9.18h2.817v5.04l3.96-5.04h2.646V27h-2.817v-5.112L327.121 27h-2.637zm11.163 0l3.177-4.869.783 1.791c-.702.006-1.329-.105-1.881-.333-.546-.234-.978-.567-1.296-.999-.312-.432-.468-.954-.468-1.566 0-.666.159-1.236.477-1.71.318-.48.771-.849 1.359-1.107s1.284-.387 2.088-.387h4.446V27h-2.799v-7.11h-1.305c-.438 0-.777.09-1.017.27-.24.174-.36.429-.36.765 0 .33.108.591.324.783.216.186.519.279.909.279h1.719v1.971h-1.044L338.86 27h-3.213z" fill="#214CD7"/><path d="M65.431 50v-8.82h4.05c.984 0 1.776.192 2.376.576.606.384.909.954.909 1.71 0 .336-.078.639-.234.909a2.09 2.09 0 01-.666.693 3.174 3.174 0 01-1.017.414l-.027-.36c.75.12 1.323.384 1.719.792.402.402.603.906.603 1.512 0 .534-.141.993-.423 1.377-.276.384-.672.681-1.188.891-.516.204-1.131.306-1.845.306h-4.257zm1.611-1.287h2.421c.648 0 1.149-.108 1.503-.324.36-.216.54-.54.54-.972 0-.432-.177-.753-.531-.963-.354-.216-.858-.324-1.512-.324H66.79v-1.251h2.466c.612 0 1.086-.093 1.422-.279.336-.186.504-.495.504-.927 0-.426-.168-.732-.504-.918-.33-.192-.804-.288-1.422-.288h-2.214v6.246zM80.264 50V37.4h1.647l5.256 8.505h-.648l5.076-8.505h1.602V50h-1.656l.018-10.296.333.108-4.5 7.353h-1.305l-4.554-7.353.261-.108L81.812 50h-1.548zm20.02.27c-.912 0-1.725-.213-2.439-.639a4.667 4.667 0 01-1.683-1.701 4.603 4.603 0 01-.612-2.34 4.64 4.64 0 011.341-3.285c.426-.438.927-.78 1.503-1.026a4.762 4.762 0 011.89-.369c.918 0 1.734.213 2.448.639a4.667 4.667 0 011.683 1.701c.408.708.612 1.488.612 2.34a4.64 4.64 0 01-1.341 3.285 4.776 4.776 0 01-1.503 1.026 4.785 4.785 0 01-1.899.369zm0-1.494c.594 0 1.119-.129 1.575-.387a2.84 2.84 0 001.089-1.107c.264-.48.396-1.044.396-1.692 0-.654-.132-1.218-.396-1.692a2.705 2.705 0 00-1.08-1.107c-.462-.258-.99-.387-1.584-.387-.594 0-1.122.129-1.584.387a2.78 2.78 0 00-1.08 1.107c-.258.474-.387 1.038-.387 1.692 0 .648.13 1.212.387 1.692a2.84 2.84 0 001.09 1.107c.461.258.986.387 1.574.387zm10.909 1.494c-.93 0-1.755-.204-2.475-.612a4.465 4.465 0 01-1.692-1.665c-.408-.708-.612-1.509-.612-2.403 0-.678.12-1.302.36-1.872a4.447 4.447 0 011.035-1.485 4.68 4.68 0 011.557-.972 5.354 5.354 0 011.962-.351 5.38 5.38 0 011.593.225c.486.15.936.381 1.35.693l-.846 1.278a2.643 2.643 0 00-.945-.522 3.59 3.59 0 00-1.143-.18c-.66 0-1.233.126-1.719.378-.48.246-.852.606-1.116 1.08-.264.474-.396 1.044-.396 1.71 0 1.002.288 1.788.864 2.358.582.564 1.368.846 2.358.846.456 0 .882-.081 1.278-.243.396-.168.72-.384.972-.648l.855 1.26a5.93 5.93 0 01-1.521.828 5.053 5.053 0 01-1.719.297zm11.075-.27l-2.979-4.707 2.673-4.113h1.782l-2.664 4.032L124.266 50h-1.998zm-5.913 0v-8.82h1.656v3.474h2.637v1.404h-2.637V50h-1.656zm13.548.27c-.912 0-1.725-.213-2.439-.639a4.667 4.667 0 01-1.683-1.701 4.603 4.603 0 01-.612-2.34 4.64 4.64 0 011.341-3.285c.426-.438.927-.78 1.503-1.026a4.762 4.762 0 011.89-.369c.918 0 1.734.213 2.448.639a4.667 4.667 0 011.683 1.701c.408.708.612 1.488.612 2.34a4.64 4.64 0 01-1.341 3.285 4.776 4.776 0 01-1.503 1.026 4.785 4.785 0 01-1.899.369zm0-1.494c.594 0 1.119-.129 1.575-.387a2.84 2.84 0 001.089-1.107c.264-.48.396-1.044.396-1.692 0-.654-.132-1.218-.396-1.692a2.705 2.705 0 00-1.08-1.107c-.462-.258-.99-.387-1.584-.387-.594 0-1.122.129-1.584.387a2.78 2.78 0 00-1.08 1.107c-.258.474-.387 1.038-.387 1.692 0 .648.129 1.212.387 1.692a2.84 2.84 0 001.089 1.107c.462.258.987.387 1.575.387zM136.728 50v-8.82h4.05c.984 0 1.776.192 2.376.576.606.384.909.954.909 1.71 0 .336-.078.639-.234.909a2.09 2.09 0 01-.666.693 3.174 3.174 0 01-1.017.414l-.027-.36c.75.12 1.323.384 1.719.792.402.402.603.906.603 1.512 0 .534-.141.993-.423 1.377-.276.384-.672.681-1.188.891-.516.204-1.131.306-1.845.306h-4.257zm1.611-1.287h2.421c.648 0 1.149-.108 1.503-.324.36-.216.54-.54.54-.972 0-.432-.177-.753-.531-.963-.354-.216-.858-.324-1.512-.324h-2.673v-1.251h2.466c.612 0 1.086-.093 1.422-.279.336-.186.504-.495.504-.927 0-.426-.168-.732-.504-.918-.33-.192-.804-.288-1.422-.288h-2.214v6.246zm12.457 1.557c-.93 0-1.755-.204-2.475-.612a4.465 4.465 0 01-1.692-1.665c-.408-.708-.612-1.509-.612-2.403 0-.678.12-1.302.36-1.872a4.447 4.447 0 011.035-1.485 4.68 4.68 0 011.557-.972 5.354 5.354 0 011.962-.351 5.38 5.38 0 011.593.225c.486.15.936.381 1.35.693l-.846 1.278a2.643 2.643 0 00-.945-.522 3.59 3.59 0 00-1.143-.18c-.66 0-1.233.126-1.719.378-.48.246-.852.606-1.116 1.08-.264.474-.396 1.044-.396 1.71 0 1.002.288 1.788.864 2.358.582.564 1.368.846 2.358.846.456 0 .882-.081 1.278-.243.396-.168.72-.384.972-.648l.855 1.26a5.93 5.93 0 01-1.521.828 5.053 5.053 0 01-1.719.297zm11.075-.27l-2.979-4.707 2.673-4.113h1.782l-2.664 4.032L163.869 50h-1.998zm-5.913 0v-8.82h1.656v3.474h2.637v1.404h-2.637V50h-1.656zm13.549.27c-.912 0-1.725-.213-2.439-.639a4.667 4.667 0 01-1.683-1.701 4.603 4.603 0 01-.612-2.34 4.64 4.64 0 011.341-3.285c.426-.438.927-.78 1.503-1.026a4.762 4.762 0 011.89-.369c.918 0 1.734.213 2.448.639a4.667 4.667 0 011.683 1.701c.408.708.612 1.488.612 2.34a4.64 4.64 0 01-1.341 3.285 4.776 4.776 0 01-1.503 1.026 4.785 4.785 0 01-1.899.369zm0-1.494c.594 0 1.119-.129 1.575-.387a2.84 2.84 0 001.089-1.107c.264-.48.396-1.044.396-1.692 0-.654-.132-1.218-.396-1.692a2.705 2.705 0 00-1.08-1.107c-.462-.258-.99-.387-1.584-.387-.594 0-1.122.129-1.584.387a2.78 2.78 0 00-1.08 1.107c-.258.474-.387 1.038-.387 1.692 0 .648.129 1.212.387 1.692a2.84 2.84 0 001.089 1.107c.462.258.987.387 1.575.387zM176.331 50v-8.82h1.611v6.336l5.13-6.336h1.422V50h-1.611v-6.408L177.708 50h-1.377zm4.077-10.44c-.642 0-1.206-.138-1.692-.414a2.897 2.897 0 01-1.125-1.125c-.264-.48-.387-1.029-.369-1.647h1.413c-.024.588.126 1.065.45 1.431.324.36.765.54 1.323.54.558 0 .996-.18 1.314-.54.324-.366.471-.843.441-1.431h1.422c.012.612-.117 1.158-.387 1.638a2.88 2.88 0 01-1.125 1.134c-.486.276-1.041.414-1.665.414zM191.853 50v-8.82h1.611v6.336l5.13-6.336h1.422V50h-1.611v-6.408L193.23 50h-1.377zm23.603 0l-5.193-6.696 4.581-5.904h2.07l-4.59 5.886L217.643 50h-2.187zm-7.821 0V37.4h1.692v5.121h2.322v1.557h-2.322V50h-1.692zm15.235.27c-.888 0-1.674-.207-2.358-.621a4.381 4.381 0 01-1.602-1.674c-.384-.708-.576-1.503-.576-2.385 0-.66.111-1.275.333-1.845.222-.57.534-1.065.936-1.485a4.195 4.195 0 011.431-.99c.558-.24 1.17-.36 1.836-.36.888 0 1.626.186 2.214.558a4.052 4.052 0 011.377 1.422l-.243.36v-2.07h1.512V50h-1.512v-2.07l.243.351a4.127 4.127 0 01-1.377 1.431c-.588.372-1.326.558-2.214.558zm.18-1.494c.588 0 1.11-.129 1.566-.387a2.797 2.797 0 001.071-1.107c.264-.48.396-1.044.396-1.692 0-.654-.132-1.218-.396-1.692a2.721 2.721 0 00-1.071-1.107c-.456-.258-.978-.387-1.566-.387-.588 0-1.11.129-1.566.387a2.78 2.78 0 00-1.08 1.107c-.264.474-.396 1.038-.396 1.692 0 .648.132 1.212.396 1.692a2.86 2.86 0 001.08 1.107c.456.258.978.387 1.566.387zm7.113 1.359l-.612-1.521c.618-.156 1.068-.405 1.35-.747.282-.348.462-.837.54-1.467.078-.63.117-1.449.117-2.457V41.18h6.957V50h-1.656v-7.416h-3.735v1.359c0 .96-.042 1.794-.126 2.502-.078.702-.225 1.296-.441 1.782-.21.486-.51.885-.9 1.197-.384.306-.882.543-1.494.711zm11.765 3.906c-.288 0-.573-.036-.855-.108a2.965 2.965 0 01-.855-.36l.387-1.431c.186.12.387.21.603.27.216.06.408.09.576.09.444 0 .789-.108 1.035-.324.246-.216.444-.546.594-.99l.351-1.008-3.492-9h1.818l2.61 7.11 2.547-7.11h1.755l-3.861 10.224c-.264.696-.558 1.233-.882 1.611-.318.384-.669.651-1.053.801-.384.15-.81.225-1.278.225zM255.368 50v-3.942h-2.403v-1.404h2.403V41.18h1.656v3.474h2.385v1.404h-2.385V50h-1.656zm-5.706 0l2.835-4.689-2.43-4.131h1.818l2.403 4.113L251.57 50h-1.908zm11.097 0l-2.673-4.707 2.466-4.113h1.755l-2.43 4.032L262.739 50h-1.98zm7.67.27c-.93 0-1.755-.204-2.475-.612a4.465 4.465 0 01-1.692-1.665c-.408-.708-.612-1.509-.612-2.403 0-.678.12-1.302.36-1.872a4.447 4.447 0 011.035-1.485 4.68 4.68 0 011.557-.972 5.354 5.354 0 011.962-.351 5.38 5.38 0 011.593.225c.486.15.936.381 1.35.693l-.846 1.278a2.643 2.643 0 00-.945-.522 3.59 3.59 0 00-1.143-.18c-.66 0-1.233.126-1.719.378-.48.246-.852.606-1.116 1.08-.264.474-.396 1.044-.396 1.71 0 1.002.288 1.788.864 2.358.582.564 1.368.846 2.358.846.456 0 .882-.081 1.278-.243.396-.168.72-.384.972-.648l.855 1.26a5.93 5.93 0 01-1.521.828 5.053 5.053 0 01-1.719.297zm11.075-.27l-2.979-4.707 2.673-4.113h1.782l-2.664 4.032L281.502 50h-1.998zm-5.913 0v-8.82h1.656v3.474h2.637v1.404h-2.637V50h-1.656zm13.549.27c-.912 0-1.725-.213-2.439-.639a4.667 4.667 0 01-1.683-1.701 4.603 4.603 0 01-.612-2.34 4.64 4.64 0 011.341-3.285c.426-.438.927-.78 1.503-1.026a4.762 4.762 0 011.89-.369c.918 0 1.734.213 2.448.639a4.667 4.667 0 011.683 1.701c.408.708.612 1.488.612 2.34a4.64 4.64 0 01-1.341 3.285 4.776 4.776 0 01-1.503 1.026 4.785 4.785 0 01-1.899.369zm0-1.494c.594 0 1.119-.129 1.575-.387a2.84 2.84 0 001.089-1.107c.264-.48.396-1.044.396-1.692 0-.654-.132-1.218-.396-1.692a2.705 2.705 0 00-1.08-1.107c-.462-.258-.99-.387-1.584-.387-.594 0-1.122.129-1.584.387a2.78 2.78 0 00-1.08 1.107c-.258.474-.387 1.038-.387 1.692 0 .648.129 1.212.387 1.692a2.84 2.84 0 001.089 1.107c.462.258.987.387 1.575.387zM293.964 50v-8.82h1.611v6.336l5.13-6.336h1.422V50h-1.611v-6.408L295.341 50h-1.377zm4.077-10.44c-.642 0-1.206-.138-1.692-.414a2.897 2.897 0 01-1.125-1.125c-.264-.48-.387-1.029-.369-1.647h1.413c-.024.588.126 1.065.45 1.431.324.36.765.54 1.323.54.558 0 .996-.18 1.314-.54.324-.366.471-.843.441-1.431h1.422c.012.612-.117 1.158-.387 1.638a2.88 2.88 0 01-1.125 1.134c-.486.276-1.041.414-1.665.414zm15.396 10.71c-.912 0-1.725-.213-2.439-.639a4.667 4.667 0 01-1.683-1.701 4.603 4.603 0 01-.612-2.34 4.64 4.64 0 011.341-3.285c.426-.438.927-.78 1.503-1.026a4.762 4.762 0 011.89-.369c.918 0 1.734.213 2.448.639a4.667 4.667 0 011.683 1.701c.408.708.612 1.488.612 2.34a4.64 4.64 0 01-1.341 3.285 4.776 4.776 0 01-1.503 1.026 4.785 4.785 0 01-1.899.369zm0-1.494c.594 0 1.119-.129 1.575-.387a2.84 2.84 0 001.089-1.107c.264-.48.396-1.044.396-1.692 0-.654-.132-1.218-.396-1.692a2.705 2.705 0 00-1.08-1.107c-.462-.258-.99-.387-1.584-.387-.594 0-1.122.129-1.584.387a2.78 2.78 0 00-1.08 1.107c-.258.474-.387 1.038-.387 1.692 0 .648.129 1.212.387 1.692a2.84 2.84 0 001.089 1.107c.462.258.987.387 1.575.387zm11.072 1.494c-.744 0-1.413-.126-2.007-.378a4.1 4.1 0 01-1.521-1.107c-.414-.486-.732-1.08-.954-1.782-.216-.702-.324-1.503-.324-2.403 0-.984.072-1.869.216-2.655.144-.786.378-1.467.702-2.043a4.256 4.256 0 011.278-1.431c.534-.378 1.188-.648 1.962-.81l4.221-.891.288 1.476-4.104.837c-.732.162-1.305.42-1.719.774a3.033 3.033 0 00-.909 1.323c-.192.534-.318 1.158-.378 1.872a4.337 4.337 0 011.44-1.341c.588-.342 1.278-.513 2.07-.513.852 0 1.599.204 2.241.612a4.246 4.246 0 011.521 1.62 4.59 4.59 0 01.549 2.232c0 .63-.108 1.224-.324 1.782a4.417 4.417 0 01-.936 1.476c-.408.42-.891.75-1.449.99s-1.179.36-1.863.36zm-.045-1.494c.564 0 1.068-.126 1.512-.378a2.74 2.74 0 001.044-1.08c.252-.462.378-1.008.378-1.638 0-.636-.126-1.185-.378-1.647a2.678 2.678 0 00-1.044-1.071c-.438-.252-.942-.378-1.512-.378-.57 0-1.077.126-1.521.378a2.678 2.678 0 00-1.044 1.071c-.252.462-.378 1.011-.378 1.647 0 .63.126 1.176.378 1.638.252.462.6.822 1.044 1.08.444.252.951.378 1.521.378zm6.351 1.359l-.612-1.521c.618-.156 1.068-.405 1.35-.747.282-.348.462-.837.54-1.467.078-.63.117-1.449.117-2.457V41.18h6.957V50h-1.656v-7.416h-3.735v1.359c0 .96-.042 1.794-.126 2.502-.078.702-.225 1.296-.441 1.782-.21.486-.51.885-.9 1.197-.384.306-.882.543-1.494.711zm14.961.135c-.888 0-1.674-.207-2.358-.621a4.381 4.381 0 01-1.602-1.674c-.384-.708-.576-1.503-.576-2.385 0-.66.111-1.275.333-1.845.222-.57.534-1.065.936-1.485a4.195 4.195 0 011.431-.99c.558-.24 1.17-.36 1.836-.36.888 0 1.626.186 2.214.558a4.052 4.052 0 011.377 1.422l-.243.36v-2.07h1.512V50h-1.512v-2.07l.243.351a4.127 4.127 0 01-1.377 1.431c-.588.372-1.326.558-2.214.558zm.18-1.494c.588 0 1.11-.129 1.566-.387a2.797 2.797 0 001.071-1.107c.264-.48.396-1.044.396-1.692 0-.654-.132-1.218-.396-1.692a2.721 2.721 0 00-1.071-1.107c-.456-.258-.978-.387-1.566-.387-.588 0-1.11.129-1.566.387a2.78 2.78 0 00-1.08 1.107c-.264.474-.396 1.038-.396 1.692 0 .648.132 1.212.396 1.692a2.86 2.86 0 001.08 1.107c.456.258.978.387 1.566.387zm11.541 1.494c-.93 0-1.755-.204-2.475-.612a4.465 4.465 0 01-1.692-1.665c-.408-.708-.612-1.509-.612-2.403 0-.678.12-1.302.36-1.872a4.447 4.447 0 011.035-1.485 4.68 4.68 0 011.557-.972 5.354 5.354 0 011.962-.351 5.38 5.38 0 011.593.225c.486.15.936.381 1.35.693l-.846 1.278a2.643 2.643 0 00-.945-.522 3.59 3.59 0 00-1.143-.18c-.66 0-1.233.126-1.719.378-.48.246-.852.606-1.116 1.08-.264.474-.396 1.044-.396 1.71 0 1.002.288 1.788.864 2.358.582.564 1.368.846 2.358.846.456 0 .882-.081 1.278-.243.396-.168.72-.384.972-.648l.855 1.26a5.93 5.93 0 01-1.521.828 5.053 5.053 0 01-1.719.297zm7.206-.27v-7.416h-3.024V41.18h7.713v1.404h-3.033V50h-1.656zm5.976 0l3.501-4.455.315 1.098c-.756.006-1.389-.102-1.899-.324-.51-.222-.897-.534-1.161-.936-.258-.408-.387-.885-.387-1.431 0-.582.15-1.08.45-1.494.306-.414.732-.729 1.278-.945.552-.222 1.194-.333 1.926-.333h3.636V50h-1.611v-7.506h-1.881c-.702 0-1.23.117-1.584.351-.354.234-.531.591-.531 1.071 0 .474.165.837.495 1.089.33.246.816.369 1.458.369h2.295v1.269h-1.746L372.614 50h-1.935zm9.391.009l3.195-4.473-3.006-4.356h2.088l2.043 3.141 1.971-3.141h2.025l-2.916 4.302L388.647 50h-2.124l-2.196-3.312-2.232 3.303-2.025.018z" fill="#3AAEF7"/></svg>