<svg width="74" height="70" fill="none" xmlns="http://www.w3.org/2000/svg"><path fill-rule="evenodd" clip-rule="evenodd" d="M38.609 6.264l6.89-5.512a2.9 2.9 0 012.714-.5c.458.148.872.408 1.203.755.332.347.57.771.695 1.233l2.278 8.507c.17.635.556 1.193 1.092 1.578a2.888 2.888 0 001.853.535l8.853-.478c.48-.021.959.076 1.392.283.433.207.808.518 1.09.904a2.873 2.873 0 01.37 2.708l-3.204 8.213a2.826 2.826 0 00-.026 1.877c.205.61.612 1.134 1.156 1.486l7.409 4.795c.405.258.739.612.97 1.031a2.83 2.83 0 01-.97 3.765l-7.409 4.777c-.555.36-.969.896-1.174 1.52-.206.625-.19 1.3.044 1.916l3.205 8.213a2.845 2.845 0 01-.369 2.704 2.884 2.884 0 01-1.092.898 2.91 2.91 0 01-1.392.274l-8.853-.496a2.887 2.887 0 00-1.853.536 2.848 2.848 0 00-1.092 1.577L50.11 67.87a2.861 2.861 0 01-.695 1.233 2.913 2.913 0 01-3.918.255l-6.89-5.512a2.903 2.903 0 00-3.703 0l-6.89 5.512a2.881 2.881 0 01-2.707.501 2.874 2.874 0 01-1.2-.755 2.84 2.84 0 01-.687-1.234l-2.297-8.507a2.829 2.829 0 00-1.053-1.552 2.868 2.868 0 00-1.799-.56L9.4 57.71a2.89 2.89 0 01-1.346-.3 2.866 2.866 0 01-1.05-.89 2.835 2.835 0 01-.364-2.632l3.186-8.213c.24-.612.26-1.288.058-1.913a2.869 2.869 0 00-1.17-1.523l-7.408-4.777a2.876 2.876 0 01-.959-1.035 2.848 2.848 0 01.96-3.76l7.408-4.796a2.85 2.85 0 001.167-1.513 2.827 2.827 0 00-.056-1.904L6.64 16.24a2.845 2.845 0 01.353-2.71 2.883 2.883 0 011.09-.905 2.909 2.909 0 011.391-.28l8.872.477a2.868 2.868 0 001.845-.537 2.83 2.83 0 001.082-1.576l2.222-8.58a2.84 2.84 0 01.688-1.234A2.893 2.893 0 0128.089.64l6.89 5.513a2.865 2.865 0 003.63.11z" fill="#214CD7"/><path d="M32.96 46.52a3.721 3.721 0 01-2.538-.992l-8.835-8.121a3.715 3.715 0 01-.24-5.273 3.78 3.78 0 015.316-.239l6.204 5.714 13.965-13.744a3.761 3.761 0 012.652-1.079 3.761 3.761 0 012.645 1.098 3.7 3.7 0 011.088 2.63 3.701 3.701 0 01-1.106 2.625L35.608 45.38a3.705 3.705 0 01-2.649 1.139z" fill="#6BC6FF"/></svg>