<svg width="46" height="46" fill="none" xmlns="http://www.w3.org/2000/svg"><path d="M23.02 0A22.997 22.997 0 001.905 13.827a22.984 22.984 0 004.298 24.867l1.877-6.827A17.323 17.323 0 0120.85 6.042a17.333 17.333 0 0118.262 10.56 17.322 17.322 0 01-5.473 20.37 17.331 17.331 0 01-10.55 3.575 17.484 17.484 0 01-8.286-2.097l-6.992 1.83A23.007 23.007 0 0045.83 20.207 22.997 22.997 0 0033.695 2.639 23.01 23.01 0 0023.02 0zm-7.785 35.304l.525.303a14.418 14.418 0 007.33 2.016A14.406 14.406 0 0037.037 26.82a14.4 14.4 0 00-6.977-16.201A14.407 14.407 0 008.755 21.803a14.399 14.399 0 002.133 9.073l.35.536-1.457 5.313 5.454-1.421zm.571-19.551a1.61 1.61 0 011.166-.548h.827c.268 0 .618-.105.98.734.36.84 1.165 3.006 1.328 3.216a.793.793 0 010 .757 2.531 2.531 0 01-.431.723 9.025 9.025 0 01-.653.757c-.21.221-.443.454-.187.886a12.944 12.944 0 002.413 2.994 11.794 11.794 0 003.496 2.156c.431.21.676.174.932-.105.257-.28 1.13-1.247 1.387-1.69.256-.442.571-.36.967-.221.397.14 2.53 1.165 2.96 1.41.432.244.723.326.828.512a3.495 3.495 0 01-.245 2.051 4.487 4.487 0 01-2.925 2.074c-.91.15-1.843.09-2.727-.175a25.555 25.555 0 01-2.47-.909 19.32 19.32 0 01-7.4-6.536 8.47 8.47 0 01-1.76-4.474 4.846 4.846 0 011.514-3.612z" fill="url(#paint0_linear_3_26)"/><defs><linearGradient id="paint0_linear_3_26" x1="23.02" y1="46.023" x2="23.02" y2="0" gradientUnits="userSpaceOnUse"><stop stop-color="#31BF2F"/><stop offset="1" stop-color="#5DF876"/></linearGradient></defs></svg>